<svg id="Icons" height="512" viewBox="0 0 74 74" width="512" xmlns="http://www.w3.org/2000/svg"><path d="m42.9 45a1 1 0 0 1 -.791-1.611l1.83-2.37a1 1 0 1 1 1.584 1.222l-1.83 2.37a1 1 0 0 1 -.793.389z"/><path d="m27.62 64.78a1 1 0 0 1 -.611-.209l-14.909-11.52a1 1 0 0 1 -.181-1.4l36.43-47.172a3.8 3.8 0 0 1 5.321-.691l10.491 8.1a3.8 3.8 0 0 1 .681 5.321l-15.01 19.442a1 1 0 1 1 -1.584-1.222l15.011-19.44a1.791 1.791 0 0 0 .359-1.328 1.772 1.772 0 0 0 -.679-1.189l-10.491-8.1a1.8 1.8 0 0 0 -2.516.329l-35.82 46.379 13.327 10.3 4.249-5.508a1 1 0 1 1 1.584 1.222l-4.86 6.3a1 1 0 0 1 -.664.38.929.929 0 0 1 -.128.006z"/><path d="m36.8 52.9a1 1 0 0 1 -.792-1.609l1.78-2.32a1 1 0 0 1 1.586 1.218l-1.78 2.32a1 1 0 0 1 -.794.391z"/><path d="m9.367 73a1 1 0 0 1 -.986-1.167l3.34-19.733a1 1 0 0 1 1.6-.625l14.908 11.512a1 1 0 0 1 -.2 1.7l-18.251 8.225a1 1 0 0 1 -.411.088zm4.048-18.925-2.749 16.243 15.021-6.766z"/><path d="m54.963 29.367a.991.991 0 0 1 -.61-.209l-14.911-11.514a1 1 0 0 1 1.223-1.583l14.91 11.514a1 1 0 0 1 -.612 1.792z"/><path d="m20.161 59.021a.99.99 0 0 1 -.61-.208 1 1 0 0 1 -.18-1.4l27.347-35.413a1 1 0 1 1 1.582 1.221l-27.347 35.412a1 1 0 0 1 -.792.388z"/></svg>